<?xml version="1.0" encoding="utf-8"?>
<!-- Generator: Adobe Illustrator 16.0.0, SVG Export Plug-In . SVG Version: 6.00 Build 0)  -->
<!DOCTYPE svg PUBLIC "-//W3C//DTD SVG 1.1//EN" "http://www.w3.org/Graphics/SVG/1.1/DTD/svg11.dtd">
<svg version="1.1" id="Capa_1" xmlns="http://www.w3.org/2000/svg" xmlns:xlink="http://www.w3.org/1999/xlink" x="0px" y="0px"
	 width="256px" height="100px" viewBox="0 0 256 100" enable-background="new 0 0 256 100" xml:space="preserve">
<g>
	<path fill="#E6E6E6" d="M99.768,86.516c-0.047,0.738-1.323,1.43-3.824,2.072c-2.477,0.643-5.93,1.205-10.361,1.68
		c-4.431,0.502-9.564,0.881-15.398,1.143c-5.837,0.287-12.125,0.432-18.867,0.432c-6.715,0-12.995-0.145-18.828-0.432
		c-5.837-0.262-10.97-0.641-15.4-1.143c-4.431-0.475-7.888-1.037-10.362-1.68c-2.501-0.643-3.778-1.334-3.825-2.072
		c0.047-0.738,1.324-1.432,3.825-2.072c2.474-0.666,5.931-1.238,10.362-1.713c4.43-0.504,9.562-0.883,15.4-1.145
		c5.833-0.285,12.112-0.432,18.828-0.432c6.741,0,13.03,0.146,18.867,0.432c5.834,0.262,10.967,0.641,15.398,1.145
		c4.407,0.475,7.86,1.035,10.361,1.676C98.445,85.053,99.721,85.752,99.768,86.516"/>
	<path fill="#00456E" d="M7.122,29.814c1.284-2.526,3.084-4.67,5.393-6.431c2.312-1.765,5.017-3.122,8.112-4.073
		c3.121-0.955,6.537-1.502,10.255-1.645c-4.027,0.595-7.529,1.788-10.506,3.573c-3,1.787-5.262,4.158-6.789,7.11
		c-1.618,3.311-2.143,6.908-1.571,10.791c0.597,3.884,2.133,7.814,4.608,11.792c2.501,3.98,5.8,7.763,9.898,11.361
		c4.098,3.621,8.86,6.814,14.292,9.574c4.36,2.17,8.694,3.85,13.005,5.039c4.313,1.166,8.469,1.848,12.47,2.037
		c4.027,0.191,7.729-0.094,11.112-0.855c3.405-0.764,6.361-2.002,8.862-3.719c2.523-1.715,4.452-3.883,5.787-6.502
		c1.145-2.287,1.739-4.729,1.786-7.324c0.047-2.596-0.404-5.264-1.356-8.004c-0.93-2.762-2.3-5.515-4.109-8.254
		c2.811,3.431,4.991,6.906,6.537,10.432c1.55,3.504,2.406,6.934,2.575,10.293c0.142,3.332-0.501,6.453-1.931,9.359
		c-1.501,2.881-3.656,5.264-6.467,7.146s-6.121,3.229-9.935,4.037c-3.81,0.832-7.956,1.121-12.433,0.857
		c-4.502-0.238-9.184-1.025-14.041-2.359c-4.859-1.357-9.744-3.262-14.649-5.715c-4.885-2.479-9.303-5.277-13.256-8.396
		c-3.956-3.096-7.373-6.373-10.255-9.826c-2.859-3.479-5.086-6.99-6.68-10.54c-1.622-3.549-2.501-7.005-2.647-10.361
		C5.025,35.851,5.667,32.72,7.122,29.814"/>
	<path fill="#4EB0D1" d="M77.401,75.047l9.075-43.446H68.968l-3.5,44.446C69.828,76.332,73.805,76,77.401,75.047"/>
	<path fill="#4EB0D1" d="M65.325,5.019H42.137l5.25,66.636c4.502,1.834,8.886,3.105,13.15,3.82L65.325,5.019"/>
	<path fill="#4EB0D1" d="M42.742,69.58l-4.251-42.734h-16.72l6.967,33.732c2.334,1.902,4.857,3.713,7.573,5.43
		C38.433,67.32,40.577,68.506,42.742,69.58"/>
	<path fill="#00466F" d="M117.565,44.926h7.327l0.895-2.141l0.88-2.139c-1.273,0.722-2.731,1.232-4.375,1.53
		c-1.237,0.225-2.814,0.365-4.727,0.42v-7.343h0.121c1.12,0,2.05,0.086,2.79,0.258c0.74,0.172,1.455,0.465,2.141,0.88l0.975-1.72
		l0.976-1.721h-7.003v-6.949h0.867c1.11,0,2.059,0.088,2.845,0.264c0.785,0.176,1.584,0.481,2.397,0.915l0.826-1.748l0.813-1.733
		h-7.749h-3.97c0.28,0.966,0.474,1.901,0.582,2.804c0.109,0.902,0.162,2.018,0.162,3.346v8.927c0,1.354-0.053,2.484-0.162,3.386
		c-0.108,0.904-0.298,1.825-0.569,2.764l0,0l0,0l0,0l0,0l0,0l0,0l0,0l0,0H117.565L117.565,44.926z M128.524,43.301
		c-0.092,0.632-0.253,1.174-0.489,1.625h2.1h2.101c-0.235-0.469-0.401-1.018-0.495-1.646c-0.096-0.628-0.143-1.515-0.143-2.663
		V29.402c0-1.417,0.047-2.538,0.143-3.36c0.094-0.822,0.26-1.566,0.495-2.235l-2.101,0.434l-2.1,0.421
		c0.236,0.649,0.397,1.291,0.489,1.922c0.089,0.633,0.135,1.428,0.135,2.385v11.649C128.659,41.774,128.613,42.668,128.524,43.301
		L128.524,43.301L128.524,43.301z M142.714,45.17c0.393-0.056,0.907-0.168,1.55-0.34l1.171-2.829
		c-0.487,0.302-1.035,0.535-1.64,0.699c-0.606,0.165-1.22,0.247-1.843,0.247c-1.382,0-2.475-0.56-3.278-1.68
		c-0.633-0.885-1.021-1.995-1.165-3.332h8.151v-1.327c0-2.16-0.454-3.821-1.361-4.986c-0.909-1.165-2.202-1.748-3.882-1.748h-0.026
		c-1.717,0-3.146,0.77-4.287,2.31c-1.144,1.54-1.715,3.47-1.715,5.792c0,2.131,0.651,3.875,1.952,5.235
		c1.3,1.359,2.967,2.039,4.998,2.039l0,0l0,0C141.862,45.251,142.32,45.224,142.714,45.17L142.714,45.17z M137.481,35.89
		c0.091-1.138,0.347-2.041,0.772-2.708c0.532-0.832,1.286-1.247,2.263-1.247h-0.013c0.894,0,1.573,0.339,2.038,1.016
		c0.465,0.678,0.702,1.658,0.712,2.939l0,0l0,0H137.481L137.481,35.89z M158.656,42.002c-0.858,0.357-1.541,0.604-2.046,0.741
		c-0.506,0.136-0.993,0.205-1.463,0.205c-1.373,0-2.463-0.502-3.271-1.503c-0.808-1.002-1.212-2.357-1.212-4.064
		c0-1.67,0.381-2.996,1.145-3.976c0.762-0.98,1.793-1.47,3.092-1.47c0.641,0,1.23,0.131,1.767,0.393
		c0.536,0.26,1.076,0.685,1.617,1.271l0.149-3.397c-0.76-0.135-1.353-0.223-1.782-0.264c-0.427-0.04-0.933-0.061-1.509-0.061
		c-2.159,0-3.957,0.774-5.394,2.324c-1.436,1.548-2.152,3.487-2.152,5.817c0,2.078,0.646,3.802,1.942,5.175
		c1.298,1.372,2.92,2.059,4.871,2.059c0.56,0,1.045-0.027,1.456-0.081c0.41-0.056,0.95-0.168,1.618-0.34L158.656,42.002
		L158.656,42.002z M166.596,45.163c0.384-0.058,0.833-0.173,1.347-0.345l1.166-2.832c-0.487,0.253-0.905,0.429-1.253,0.529
		c-0.348,0.1-0.729,0.149-1.146,0.149c-0.677,0-1.184-0.247-1.522-0.739c-0.341-0.492-0.509-1.235-0.509-2.229v-7.463h3.427v-2.033
		h-3.427V26.95h-0.02l-5.005,5.276v0.007h2.085v8.695c0,1.508,0.264,2.606,0.792,3.292c0.53,0.687,1.371,1.029,2.527,1.029l0,0l0,0
		l0,0C165.699,45.251,166.211,45.222,166.596,45.163L166.596,45.163z M170.558,43.301c-0.09,0.632-0.253,1.174-0.487,1.625h2.1
		h2.099c-0.234-0.469-0.399-1.018-0.493-1.646c-0.096-0.628-0.143-1.515-0.143-2.663v-7.057l0.663-0.298
		c0.903-0.416,1.635-0.624,2.196-0.624c0.757,0,1.412,0.204,1.963,0.609l0.136,0.095l0.597-3.169
		c-0.361-0.199-0.8-0.299-1.314-0.299c-0.624,0-1.273,0.122-1.95,0.366l-2.29,2.574v-2.614h-1.789h-1.773
		c0.234,0.813,0.396,1.535,0.487,2.167c0.092,0.632,0.135,1.346,0.135,2.14v6.109l0,0l0,0l0,0l0,0
		C170.693,41.774,170.649,42.668,170.558,43.301L170.558,43.301L170.558,43.301z M186.218,45.251c2.077,0,3.801-0.77,5.175-2.309
		c1.372-1.54,2.059-3.475,2.059-5.805c0-2.077-0.616-3.807-1.85-5.188c-1.232-1.382-2.783-2.073-4.653-2.073
		c-2.066,0-3.79,0.772-5.167,2.317c-1.378,1.544-2.065,3.481-2.065,5.811c0,2.078,0.618,3.806,1.854,5.182
		C182.808,44.563,184.356,45.251,186.218,45.251L186.218,45.251L186.218,45.251z M187.802,43.192
		c-1.544-0.054-2.769-0.646-3.67-1.775c-0.904-1.128-1.354-2.633-1.354-4.51c0-1.193,0.231-2.238,0.696-3.137
		c0.466-0.898,1.095-1.51,1.89-1.835c1.544,0.054,2.769,0.648,3.671,1.781c0.903,1.134,1.355,2.639,1.355,4.518
		c0,1.193-0.232,2.233-0.697,3.122C189.228,42.247,188.597,42.858,187.802,43.192L187.802,43.192L187.802,43.192z M209.138,44.926
		h7.329l0.894-2.141l0.88-2.139c-1.271,0.722-2.73,1.232-4.374,1.53c-1.238,0.225-2.813,0.365-4.729,0.42v-7.343h0.121
		c1.12,0,2.051,0.086,2.792,0.258c0.74,0.172,1.455,0.465,2.14,0.88l0.977-1.72l0.975-1.721h-7.004v-6.949h0.868
		c1.11,0,2.058,0.088,2.844,0.264c0.785,0.176,1.586,0.481,2.398,0.915l0.826-1.748l0.812-1.733h-7.748h-3.969
		c0.279,0.966,0.475,1.901,0.583,2.804c0.108,0.902,0.162,2.018,0.162,3.346v8.927c0,1.354-0.054,2.484-0.162,3.386
		c-0.108,0.904-0.299,1.825-0.569,2.764l0,0l0,0l0,0l0,0l0,0l0,0l0,0l0,0H209.138L209.138,44.926z M220.098,43.301
		c-0.091,0.632-0.253,1.174-0.488,1.625h2.1h2.1c-0.235-0.469-0.399-1.018-0.495-1.646c-0.094-0.628-0.142-1.515-0.142-2.663V29.402
		c0-1.417,0.048-2.538,0.142-3.36c0.096-0.822,0.26-1.566,0.495-2.235l-2.1,0.434l-2.1,0.421c0.235,0.649,0.397,1.291,0.488,1.922
		c0.089,0.633,0.136,1.428,0.136,2.385v11.649C220.233,41.774,220.187,42.668,220.098,43.301L220.098,43.301L220.098,43.301z
		 M226.735,43.301c-0.091,0.632-0.254,1.174-0.488,1.625h2.101h2.098c-0.233-0.469-0.398-1.018-0.492-1.646
		c-0.095-0.628-0.143-1.515-0.143-2.663v-6.109c0-1.138,0.048-2.022,0.143-2.655c0.094-0.632,0.259-1.183,0.492-1.653h-2.098h-2.101
		c0.234,0.813,0.397,1.536,0.488,2.167c0.089,0.632,0.136,1.346,0.136,2.14v6.109C226.871,41.774,226.824,42.668,226.735,43.301
		L226.735,43.301L226.735,43.301z M226.866,24.715c-0.386,0.442-0.579,0.984-0.579,1.625c0,0.642,0.193,1.181,0.579,1.62
		c0.385,0.438,0.853,0.656,1.406,0.656s1.022-0.219,1.406-0.656c0.387-0.438,0.579-0.979,0.579-1.62s-0.192-1.183-0.579-1.625
		c-0.383-0.442-0.853-0.664-1.406-0.664S227.251,24.272,226.866,24.715L226.866,24.715z M238.731,45.163
		c0.382-0.058,0.833-0.173,1.346-0.345l1.166-2.832c-0.487,0.253-0.906,0.429-1.253,0.529c-0.349,0.1-0.729,0.149-1.145,0.149
		c-0.678,0-1.186-0.247-1.523-0.739c-0.341-0.492-0.509-1.235-0.509-2.229v-7.463h3.428v-2.033h-3.428V26.95h-0.02l-5.007,5.276
		v0.007h2.086v8.695c0,1.508,0.266,2.606,0.793,3.292c0.529,0.687,1.371,1.029,2.526,1.029l0,0l0,0l0,0
		C237.833,45.251,238.346,45.222,238.731,45.163L238.731,45.163z M250.15,45.17c0.392-0.056,0.909-0.168,1.551-0.34l1.17-2.829
		c-0.487,0.302-1.035,0.535-1.64,0.699c-0.605,0.165-1.221,0.247-1.843,0.247c-1.383,0-2.476-0.56-3.28-1.68
		c-0.632-0.885-1.021-1.995-1.164-3.332h8.152v-1.327c0-2.16-0.454-3.821-1.362-4.986c-0.907-1.165-2.201-1.748-3.881-1.748h-0.026
		c-1.716,0-3.146,0.77-4.287,2.31c-1.144,1.54-1.714,3.47-1.714,5.792c0,2.131,0.65,3.875,1.95,5.235
		c1.301,1.359,2.967,2.039,4.998,2.039l0,0l0,0C249.299,45.251,249.757,45.224,250.15,45.17L250.15,45.17z M244.918,35.89
		c0.089-1.138,0.347-2.041,0.772-2.708c0.531-0.832,1.285-1.247,2.264-1.247h-0.016c0.896,0,1.575,0.339,2.039,1.016
		c0.466,0.678,0.702,1.658,0.712,2.939l0,0l0,0H244.918L244.918,35.89z"/>
	<path fill="#4DAED1" d="M140.453,61.16L140.453,61.16l6.337,7.816h0.004l6.32-8.242h0.003v8.242c0,1.221-0.049,2.24-0.147,3.053
		c-0.097,0.814-0.268,1.646-0.513,2.49h2.125h2.114c-0.253-0.861-0.429-1.699-0.526-2.514c-0.097-0.814-0.146-1.824-0.146-3.029
		v-8.049c0-1.203,0.115-2.213,0.348-3.029c0.231-0.813,0.641-1.65,1.228-2.512h-2.053h-2.039c0,0.26-0.102,0.59-0.305,0.992
		c-0.203,0.404-0.468,0.809-0.794,1.217l-5.51,7.01h-0.006l-6.024-7.449c-0.236-0.287-0.429-0.59-0.575-0.908
		c-0.146-0.324-0.224-0.609-0.23-0.861h-2.249h-2.245l1.979,2.293v11.297c0,1.221-0.049,2.24-0.146,3.053
		c-0.099,0.814-0.269,1.646-0.514,2.49h2.125h2.111c-0.251-0.863-0.426-1.699-0.524-2.514c-0.098-0.814-0.146-1.824-0.146-3.029l0,0
		V61.16L140.453,61.16z M163.51,74.789l2.063-1.537v1.268h1.563h1.564c-0.178-0.348-0.304-0.807-0.372-1.373
		c-0.069-0.564-0.104-1.4-0.104-2.508v-5.203c0-1.49-0.36-2.609-1.081-3.357c-0.72-0.75-1.797-1.125-3.23-1.125
		c-0.504,0-1.001,0.053-1.49,0.152c-0.488,0.104-0.991,0.264-1.513,0.484l-0.732,2.545c0.546-0.379,1.047-0.652,1.502-0.818
		c0.456-0.166,0.927-0.25,1.417-0.25c0.757,0,1.359,0.215,1.807,0.641s0.67,1.004,0.67,1.729v1.209l-3.906,1.613
		c-0.839,0.35-1.503,0.826-1.997,1.428c-0.492,0.602-0.738,1.244-0.738,1.93c0,1.027,0.35,1.814,1.05,2.369s1.697,0.83,2.992,0.83
		l0,0l0,0l0,0L163.51,74.789L163.51,74.789z M165.549,72.506c-0.465,0.139-0.947,0.209-1.451,0.209
		c-0.815,0-1.426-0.158-1.832-0.471c-0.409-0.313-0.611-0.783-0.611-1.412c0-0.334,0.062-0.748,0.188-1.24
		c0.127-0.49,0.23-0.738,0.313-0.738h3.417v3.652l0,0H165.549L165.549,72.506z M177.725,74.496l1.575-1.781v1.805h1.613h1.611
		c-0.211-0.424-0.36-0.916-0.444-1.482c-0.087-0.564-0.129-1.365-0.129-2.398V60.525c0-1.342,0.036-2.385,0.109-3.125
		c0.073-0.742,0.207-1.381,0.403-1.918l-1.869,0.391l-1.856,0.379c0.212,0.586,0.358,1.164,0.439,1.734
		c0.082,0.57,0.121,1.287,0.121,2.15v1.037c-0.463-0.146-0.964-0.221-1.501-0.221c-1.995,0-3.654,0.773-4.976,2.328
		c-1.323,1.549-1.986,3.494-1.986,5.83c0,1.752,0.478,3.139,1.435,4.164c0.958,1.027,2.255,1.539,3.892,1.539l0,0l0,0l0,0
		C176.594,74.822,177.115,74.717,177.725,74.496L177.725,74.496L177.725,74.496z M179.3,63.605v8.375l-0.781,0.416
		c-0.447,0.195-0.932,0.293-1.452,0.293c-1.075,0-1.929-0.426-2.559-1.277c-0.633-0.852-0.947-2-0.947-3.449
		c0-1.814,0.261-3.125,0.78-3.926c0.522-0.803,1.374-1.203,2.555-1.203l0,0l0,0C177.881,62.834,178.683,63.09,179.3,63.605
		L179.3,63.605L179.3,63.605z M185.224,73.055c-0.082,0.57-0.228,1.061-0.439,1.465h1.894h1.892
		c-0.213-0.424-0.359-0.916-0.445-1.482c-0.087-0.564-0.128-1.365-0.128-2.398v-6.363l0.598-0.268
		c0.814-0.375,1.474-0.563,1.978-0.563c0.686,0,1.275,0.184,1.772,0.549l0.121,0.086l0.538-2.857
		c-0.325-0.18-0.721-0.268-1.185-0.268c-0.562,0-1.148,0.109-1.76,0.33l-2.063,2.32v-2.359h-1.611h-1.601
		c0.212,0.734,0.357,1.385,0.439,1.955c0.081,0.57,0.122,1.213,0.122,1.93v5.508l0,0l0,0l0,0l0,0
		C185.346,71.68,185.305,72.484,185.224,73.055L185.224,73.055L185.224,73.055z M194.359,73.055
		c-0.082,0.57-0.229,1.061-0.439,1.465h1.892h1.892c-0.211-0.424-0.358-0.916-0.445-1.482c-0.084-0.564-0.128-1.365-0.128-2.398
		v-5.51c0-1.025,0.044-1.822,0.128-2.395c0.088-0.568,0.234-1.064,0.445-1.488h-1.892h-1.892c0.21,0.734,0.357,1.385,0.439,1.953
		c0.081,0.572,0.122,1.215,0.122,1.93v5.51C194.481,71.68,194.44,72.484,194.359,73.055L194.359,73.055L194.359,73.055z
		 M194.477,56.303c-0.348,0.396-0.521,0.885-0.521,1.463s0.173,1.064,0.521,1.461c0.347,0.395,0.77,0.592,1.268,0.592
		c0.499,0,0.922-0.197,1.269-0.592c0.349-0.396,0.52-0.883,0.52-1.461s-0.171-1.066-0.52-1.463c-0.347-0.402-0.77-0.602-1.269-0.602
		S194.823,55.9,194.477,56.303L194.477,56.303z M206.779,74.496l1.575-1.781v1.805h1.61h1.613c-0.212-0.424-0.36-0.916-0.447-1.482
		c-0.084-0.564-0.127-1.365-0.127-2.398V60.525c0-1.342,0.037-2.385,0.109-3.125c0.073-0.742,0.208-1.381,0.403-1.918l-1.868,0.391
		l-1.856,0.379c0.212,0.586,0.358,1.164,0.438,1.734c0.083,0.57,0.124,1.287,0.124,2.15v1.037c-0.466-0.146-0.967-0.221-1.504-0.221
		c-1.994,0-3.653,0.773-4.976,2.328c-1.323,1.549-1.985,3.494-1.985,5.83c0,1.752,0.48,3.139,1.436,4.164
		c0.956,1.027,2.253,1.539,3.89,1.539l0,0l0,0l0,0C205.647,74.822,206.168,74.717,206.779,74.496L206.779,74.496L206.779,74.496z
		 M208.354,63.605v8.375l-0.782,0.416c-0.448,0.195-0.933,0.293-1.453,0.293c-1.075,0-1.929-0.426-2.56-1.277
		c-0.63-0.852-0.944-2-0.944-3.449c0-1.814,0.259-3.125,0.779-3.926c0.521-0.803,1.374-1.203,2.554-1.203l0,0l0,0
		C206.932,62.834,207.736,63.09,208.354,63.605L208.354,63.605L208.354,63.605z"/>
</g>
</svg>
